<svg width="131" height="130" viewBox="0 0 131 130" fill="none" xmlns="http://www.w3.org/2000/svg">
<circle cx="65.5" cy="65" r="65" fill="#FFE2E2"/>
<g clip-path="url(#clip0_2192_5485)">
<path d="M77.75 61.7337C76.6167 55.9837 71.5667 51.667 65.5 51.667C60.6833 51.667 56.5 54.4003 54.4167 58.4003C49.4 58.9337 45.5 63.1837 45.5 68.3337C45.5 73.8503 49.9833 78.3337 55.5 78.3337H77.1667C81.7667 78.3337 85.5 74.6003 85.5 70.0003C85.5 65.6003 82.0833 62.0337 77.75 61.7337ZM77.1667 75.0003H55.5C51.8167 75.0003 48.8333 72.017 48.8333 68.3337C48.8333 64.917 51.3833 62.067 54.7667 61.717L56.55 61.5337L57.3833 59.9503C58.9667 56.9003 62.0667 55.0003 65.5 55.0003C69.8667 55.0003 73.6333 58.1003 74.4833 62.3837L74.9833 64.8837L77.5333 65.067C80.1333 65.2337 82.1667 67.417 82.1667 70.0003C82.1667 72.7503 79.9167 75.0003 77.1667 75.0003ZM58.8333 66.667H63.0833V71.667H67.9167V66.667H72.1667L65.5 60.0003L58.8333 66.667Z" fill="#301E4E"/>
</g>
<defs>
<clipPath id="clip0_2192_5485">
<rect width="40" height="40" fill="white" transform="translate(45.5 45)"/>
</clipPath>
</defs>
</svg>
