<svg width="131" height="130" viewBox="0 0 131 130" fill="none" xmlns="http://www.w3.org/2000/svg">
<circle cx="65.5" cy="65" r="65" fill="#F2F2F2"/>
<path d="M53.5003 78.3337V61.667H73.5003V63.3337C74.667 63.3337 75.7837 63.5003 76.8337 63.817V61.667C76.8337 59.8337 75.3337 58.3337 73.5003 58.3337H71.8337V55.0003C71.8337 50.4003 68.1003 46.667 63.5003 46.667C58.9003 46.667 55.167 50.4003 55.167 55.0003V58.3337H53.5003C51.667 58.3337 50.167 59.8337 50.167 61.667V78.3337C50.167 80.167 51.667 81.667 53.5003 81.667H63.9337C63.2337 80.667 62.6837 79.5337 62.317 78.3337H53.5003ZM58.5003 55.0003C58.5003 52.2337 60.7337 50.0003 63.5003 50.0003C66.267 50.0003 68.5003 52.2337 68.5003 55.0003V58.3337H58.5003V55.0003Z" fill="#301E4E"/>
<path d="M73.5003 66.667C68.9003 66.667 65.167 70.4003 65.167 75.0003C65.167 79.6003 68.9003 83.3337 73.5003 83.3337C78.1003 83.3337 81.8337 79.6003 81.8337 75.0003C81.8337 70.4003 78.1003 66.667 73.5003 66.667ZM73.5003 70.0003C74.8837 70.0003 76.0003 71.117 76.0003 72.5003C76.0003 73.8837 74.8837 75.0003 73.5003 75.0003C72.117 75.0003 71.0003 73.8837 71.0003 72.5003C71.0003 71.117 72.117 70.0003 73.5003 70.0003ZM73.5003 80.0003C71.7837 80.0003 70.267 79.1337 69.367 77.8003C70.5837 77.1003 71.9837 76.667 73.5003 76.667C75.017 76.667 76.417 77.1003 77.6337 77.8003C76.7337 79.1337 75.217 80.0003 73.5003 80.0003Z" fill="#301E4E"/>
</svg>
