<svg width="229" height="60" viewBox="0 0 229 60" fill="none" xmlns="http://www.w3.org/2000/svg">
<g filter="url(#filter0_d_1535_2254)">
<path d="M89.4844 33.8086V34.6484C89.4844 38.4505 88.651 41.1849 86.9844 42.8516C85.3177 44.5182 82.5898 45.3516 78.8008 45.3516H76.1641C72.0625 45.3516 69.1784 44.4727 67.5117 42.7148C65.8581 40.957 65.0312 37.8776 65.0312 33.4766V27.4414C65.0312 23.0273 65.8516 19.9479 67.4922 18.2031C69.1458 16.4453 72.0365 15.5664 76.1641 15.5664H78.3125C82.401 15.5664 85.2526 16.3346 86.8672 17.8711C87.6745 18.6393 88.2799 19.694 88.6836 21.0352C89.0872 22.3763 89.2891 24.0299 89.2891 25.9961V26.5625H81.5156V26.0352C81.5156 24.694 81.2096 23.7565 80.5977 23.2227C79.9857 22.6758 78.918 22.4023 77.3945 22.4023C75.7148 22.4023 74.5951 22.7344 74.0352 23.3984C73.4753 24.0495 73.1953 25.612 73.1953 28.0859V32.8711C73.1953 35.3451 73.4753 36.9076 74.0352 37.5586C74.5951 38.1966 75.7148 38.5156 77.3945 38.5156C78.944 38.5156 80.0247 38.2227 80.6367 37.6367C81.2487 37.0378 81.5547 35.9831 81.5547 34.4727V33.8086H89.4844ZM94.1133 45V15.918H100.637V27.3633C100.91 26.3216 101.516 25.5273 102.453 24.9805C103.404 24.4336 104.667 24.1602 106.242 24.1602C108.664 24.1602 110.35 24.6875 111.301 25.7422C112.251 26.7839 112.727 28.75 112.727 31.6406V45H106.203V33.0859C106.203 31.6146 106.027 30.651 105.676 30.1953C105.337 29.7396 104.536 29.5117 103.273 29.5117C102.271 29.5117 101.581 29.7591 101.203 30.2539C100.826 30.7357 100.637 31.8099 100.637 33.4766V45H94.1133ZM136.75 24.4336V45H130.422L130.5 42.0703C129.94 43.2031 129.198 44.0234 128.273 44.5312C127.362 45.026 126.171 45.2734 124.699 45.2734C122.212 45.2734 120.493 44.7591 119.543 43.7305C118.605 42.6888 118.137 40.7227 118.137 37.832V24.4336H124.66V36.3672C124.66 37.8385 124.836 38.8086 125.188 39.2773C125.539 39.707 126.34 39.9219 127.59 39.9219C128.592 39.9219 129.283 39.6875 129.66 39.2188C130.038 38.737 130.227 37.6628 130.227 35.9961V24.4336H136.75ZM142.316 45V24.4336H148.645L148.566 27.3633C149.139 26.2435 149.888 25.4297 150.812 24.9219C151.737 24.4141 152.948 24.1602 154.445 24.1602C156.867 24.1602 158.553 24.6875 159.504 25.7422C160.454 26.7839 160.93 28.75 160.93 31.6406V45H154.406V33.0859C154.406 31.6146 154.23 30.651 153.879 30.1953C153.54 29.7396 152.74 29.5117 151.477 29.5117C150.474 29.5117 149.784 29.7591 149.406 30.2539C149.029 30.7357 148.84 31.8099 148.84 33.4766V45H142.316ZM166.34 45V15.918H172.863V32.168H173.352L177.355 24.4336H184.758L179.152 34.3164L185.871 45H178.234L173.352 36.7578H172.863V45H166.34Z" fill="#301E4E"/>
<path d="M189.289 45V15.918H197.16V45H189.289ZM209.016 45V22.4023H201.535V15.918H224.348V22.4023H216.906V45H209.016Z" fill="#FF6E6C"/>
</g>
<g filter="url(#filter1_d_1535_2254)">
<rect x="4" y="23" width="16" height="16" fill="#301E4E"/>
<rect x="48" y="13" width="7" height="7" fill="#FF6E6C"/>
<rect x="48" y="27" width="7" height="7" fill="#FF6E6C"/>
<rect x="48" y="40" width="7" height="7" fill="#FF6E6C"/>
<line x1="34.5" y1="43" x2="34.5" y2="16.9808" stroke="#301E4E"/>
<line x1="19.9906" y1="30.5" x2="34.0001" y2="30.5104" stroke="#301E4E"/>
<line x1="34.0004" y1="16.5" x2="48.0099" y2="16.5104" stroke="#301E4E"/>
<line x1="34.0004" y1="30.5" x2="48.0099" y2="30.5104" stroke="#301E4E"/>
<line x1="34.0004" y1="43.5" x2="48.0099" y2="43.5104" stroke="#301E4E"/>
</g>
<defs>
<filter id="filter0_d_1535_2254" x="61.0312" y="15.5664" width="167.316" height="37.7852" filterUnits="userSpaceOnUse" color-interpolation-filters="sRGB">
<feFlood flood-opacity="0" result="BackgroundImageFix"/>
<feColorMatrix in="SourceAlpha" type="matrix" values="0 0 0 0 0 0 0 0 0 0 0 0 0 0 0 0 0 0 127 0" result="hardAlpha"/>
<feOffset dy="4"/>
<feGaussianBlur stdDeviation="2"/>
<feComposite in2="hardAlpha" operator="out"/>
<feColorMatrix type="matrix" values="0 0 0 0 0 0 0 0 0 0 0 0 0 0 0 0 0 0 0.25 0"/>
<feBlend mode="normal" in2="BackgroundImageFix" result="effect1_dropShadow_1535_2254"/>
<feBlend mode="normal" in="SourceGraphic" in2="effect1_dropShadow_1535_2254" result="shape"/>
</filter>
<filter id="filter1_d_1535_2254" x="0" y="13" width="59" height="42" filterUnits="userSpaceOnUse" color-interpolation-filters="sRGB">
<feFlood flood-opacity="0" result="BackgroundImageFix"/>
<feColorMatrix in="SourceAlpha" type="matrix" values="0 0 0 0 0 0 0 0 0 0 0 0 0 0 0 0 0 0 127 0" result="hardAlpha"/>
<feOffset dy="4"/>
<feGaussianBlur stdDeviation="2"/>
<feComposite in2="hardAlpha" operator="out"/>
<feColorMatrix type="matrix" values="0 0 0 0 0 0 0 0 0 0 0 0 0 0 0 0 0 0 0.25 0"/>
<feBlend mode="normal" in2="BackgroundImageFix" result="effect1_dropShadow_1535_2254"/>
<feBlend mode="normal" in="SourceGraphic" in2="effect1_dropShadow_1535_2254" result="shape"/>
</filter>
</defs>
</svg>
