<svg width="15" height="19" viewBox="0 0 15 19" fill="none" xmlns="http://www.w3.org/2000/svg">
<path d="M13.9799 10.2548C14.1021 10.1707 14.2019 10.0582 14.2709 9.92693C14.3399 9.79566 14.3759 9.6496 14.3759 9.50131C14.3759 9.35302 14.3399 9.20695 14.2709 9.07569C14.2019 8.94443 14.1021 8.8319 13.9799 8.74781L2.06325 0.497808C1.9258 0.402313 1.76481 0.346315 1.59777 0.335894C1.43073 0.325472 1.26403 0.361027 1.11578 0.438696C0.967526 0.516365 0.843394 0.633179 0.75687 0.776442C0.670346 0.919706 0.624738 1.08394 0.625001 1.25131L0.625001 17.7513C0.625691 17.9183 0.671886 18.0819 0.758617 18.2246C0.845349 18.3673 0.969336 18.4836 1.11724 18.5611C1.26515 18.6386 1.43139 18.6743 1.59807 18.6644C1.76475 18.6545 1.92558 18.5993 2.06325 18.5048L13.9799 10.2548Z" fill="white"/>
</svg>
