<svg width="233" height="60" viewBox="0 0 233 60" fill="none" xmlns="http://www.w3.org/2000/svg">
<path d="M78.16 45.6C75.28 45.6 72.7933 44.9733 70.7 43.72C68.62 42.4667 67.0133 40.7133 65.88 38.46C64.76 36.2067 64.2 33.5867 64.2 30.6C64.2 27.6133 64.76 24.9933 65.88 22.74C67.0133 20.4867 68.62 18.7333 70.7 17.48C72.7933 16.2267 75.28 15.6 78.16 15.6C81.4667 15.6 84.24 16.42 86.48 18.06C88.7333 19.7 90.32 21.92 91.24 24.72L85.76 26.24C85.2267 24.4933 84.3267 23.14 83.06 22.18C81.7933 21.2067 80.16 20.72 78.16 20.72C76.3333 20.72 74.8067 21.1267 73.58 21.94C72.3667 22.7533 71.4533 23.9 70.84 25.38C70.2267 26.86 69.92 28.6 69.92 30.6C69.92 32.6 70.2267 34.34 70.84 35.82C71.4533 37.3 72.3667 38.4467 73.58 39.26C74.8067 40.0733 76.3333 40.48 78.16 40.48C80.16 40.48 81.7933 39.9933 83.06 39.02C84.3267 38.0467 85.2267 36.6933 85.76 34.96L91.24 36.48C90.32 39.28 88.7333 41.5 86.48 43.14C84.24 44.78 81.4667 45.6 78.16 45.6ZM110.364 45V34.8C110.364 34.3067 110.337 33.68 110.284 32.92C110.23 32.1467 110.064 31.3733 109.784 30.6C109.504 29.8267 109.044 29.18 108.404 28.66C107.777 28.14 106.884 27.88 105.724 27.88C105.257 27.88 104.757 27.9533 104.224 28.1C103.69 28.2467 103.19 28.5333 102.724 28.96C102.257 29.3733 101.87 29.9867 101.564 30.8C101.27 31.6133 101.124 32.6933 101.124 34.04L98.0038 32.56C98.0038 30.8533 98.3504 29.2533 99.0438 27.76C99.7371 26.2667 100.777 25.06 102.164 24.14C103.564 23.22 105.324 22.76 107.444 22.76C109.137 22.76 110.517 23.0467 111.584 23.62C112.65 24.1933 113.477 24.92 114.064 25.8C114.664 26.68 115.09 27.6 115.344 28.56C115.597 29.5067 115.75 30.3733 115.804 31.16C115.857 31.9467 115.884 32.52 115.884 32.88V45H110.364ZM95.6038 45V16.2H100.444V31H101.124V45H95.6038ZM129.113 45.64C127.42 45.64 126.04 45.3533 124.973 44.78C123.907 44.2067 123.073 43.48 122.473 42.6C121.887 41.72 121.467 40.8067 121.213 39.86C120.96 38.9 120.807 38.0267 120.753 37.24C120.7 36.4533 120.673 35.88 120.673 35.52V23.4H126.193V33.6C126.193 34.0933 126.22 34.7267 126.273 35.5C126.327 36.26 126.493 37.0267 126.773 37.8C127.053 38.5733 127.507 39.22 128.133 39.74C128.773 40.26 129.673 40.52 130.833 40.52C131.3 40.52 131.8 40.4467 132.333 40.3C132.867 40.1533 133.367 39.8733 133.833 39.46C134.3 39.0333 134.68 38.4133 134.973 37.6C135.28 36.7733 135.433 35.6933 135.433 34.36L138.553 35.84C138.553 37.5467 138.207 39.1467 137.513 40.64C136.82 42.1333 135.773 43.34 134.373 44.26C132.987 45.18 131.233 45.64 129.113 45.64ZM136.113 45V37.84H135.433V23.4H140.913V45H136.113ZM161.223 45V34.8C161.223 34.3067 161.196 33.68 161.143 32.92C161.09 32.1467 160.923 31.3733 160.643 30.6C160.363 29.8267 159.903 29.18 159.263 28.66C158.636 28.14 157.743 27.88 156.583 27.88C156.116 27.88 155.616 27.9533 155.083 28.1C154.55 28.2467 154.05 28.5333 153.583 28.96C153.116 29.3733 152.73 29.9867 152.423 30.8C152.13 31.6133 151.983 32.6933 151.983 34.04L148.863 32.56C148.863 30.8533 149.21 29.2533 149.903 27.76C150.596 26.2667 151.636 25.06 153.023 24.14C154.423 23.22 156.183 22.76 158.303 22.76C159.996 22.76 161.376 23.0467 162.443 23.62C163.51 24.1933 164.336 24.92 164.923 25.8C165.523 26.68 165.95 27.6 166.203 28.56C166.456 29.5067 166.61 30.3733 166.663 31.16C166.716 31.9467 166.743 32.52 166.743 32.88V45H161.223ZM146.463 45V23.4H151.303V30.56H151.983V45H146.463ZM171.893 45L171.933 16.2H177.453V33.8L184.773 23.4H191.493L183.693 34.2L192.013 45H184.933L177.453 34.6V45H171.893Z" fill="#301E4E"/>
<path d="M194.403 45V16.2H199.843V45H194.403ZM212.519 45V21.28H203.439V16.2H227.039V21.28H217.959V45H212.519Z" fill="#FF6E6C"/>
<g filter="url(#filter0_d_1259_1531)">
<path d="M79.16 45.6C76.28 45.6 73.7933 44.9733 71.7 43.72C69.62 42.4667 68.0133 40.7133 66.88 38.46C65.76 36.2067 65.2 33.5867 65.2 30.6C65.2 27.6133 65.76 24.9933 66.88 22.74C68.0133 20.4867 69.62 18.7333 71.7 17.48C73.7933 16.2267 76.28 15.6 79.16 15.6C82.4667 15.6 85.24 16.42 87.48 18.06C89.7333 19.7 91.32 21.92 92.24 24.72L86.76 26.24C86.2267 24.4933 85.3267 23.14 84.06 22.18C82.7933 21.2067 81.16 20.72 79.16 20.72C77.3333 20.72 75.8067 21.1267 74.58 21.94C73.3667 22.7533 72.4533 23.9 71.84 25.38C71.2267 26.86 70.92 28.6 70.92 30.6C70.92 32.6 71.2267 34.34 71.84 35.82C72.4533 37.3 73.3667 38.4467 74.58 39.26C75.8067 40.0733 77.3333 40.48 79.16 40.48C81.16 40.48 82.7933 39.9933 84.06 39.02C85.3267 38.0467 86.2267 36.6933 86.76 34.96L92.24 36.48C91.32 39.28 89.7333 41.5 87.48 43.14C85.24 44.78 82.4667 45.6 79.16 45.6ZM111.364 45V34.8C111.364 34.3067 111.337 33.68 111.284 32.92C111.23 32.1467 111.064 31.3733 110.784 30.6C110.504 29.8267 110.044 29.18 109.404 28.66C108.777 28.14 107.884 27.88 106.724 27.88C106.257 27.88 105.757 27.9533 105.224 28.1C104.69 28.2467 104.19 28.5333 103.724 28.96C103.257 29.3733 102.87 29.9867 102.564 30.8C102.27 31.6133 102.124 32.6933 102.124 34.04L99.0038 32.56C99.0038 30.8533 99.3504 29.2533 100.044 27.76C100.737 26.2667 101.777 25.06 103.164 24.14C104.564 23.22 106.324 22.76 108.444 22.76C110.137 22.76 111.517 23.0467 112.584 23.62C113.65 24.1933 114.477 24.92 115.064 25.8C115.664 26.68 116.09 27.6 116.344 28.56C116.597 29.5067 116.75 30.3733 116.804 31.16C116.857 31.9467 116.884 32.52 116.884 32.88V45H111.364ZM96.6038 45V16.2H101.444V31H102.124V45H96.6038ZM130.113 45.64C128.42 45.64 127.04 45.3533 125.973 44.78C124.907 44.2067 124.073 43.48 123.473 42.6C122.887 41.72 122.467 40.8067 122.213 39.86C121.96 38.9 121.807 38.0267 121.753 37.24C121.7 36.4533 121.673 35.88 121.673 35.52V23.4H127.193V33.6C127.193 34.0933 127.22 34.7267 127.273 35.5C127.327 36.26 127.493 37.0267 127.773 37.8C128.053 38.5733 128.507 39.22 129.133 39.74C129.773 40.26 130.673 40.52 131.833 40.52C132.3 40.52 132.8 40.4467 133.333 40.3C133.867 40.1533 134.367 39.8733 134.833 39.46C135.3 39.0333 135.68 38.4133 135.973 37.6C136.28 36.7733 136.433 35.6933 136.433 34.36L139.553 35.84C139.553 37.5467 139.207 39.1467 138.513 40.64C137.82 42.1333 136.773 43.34 135.373 44.26C133.987 45.18 132.233 45.64 130.113 45.64ZM137.113 45V37.84H136.433V23.4H141.913V45H137.113ZM162.223 45V34.8C162.223 34.3067 162.196 33.68 162.143 32.92C162.09 32.1467 161.923 31.3733 161.643 30.6C161.363 29.8267 160.903 29.18 160.263 28.66C159.636 28.14 158.743 27.88 157.583 27.88C157.116 27.88 156.616 27.9533 156.083 28.1C155.55 28.2467 155.05 28.5333 154.583 28.96C154.116 29.3733 153.73 29.9867 153.423 30.8C153.13 31.6133 152.983 32.6933 152.983 34.04L149.863 32.56C149.863 30.8533 150.21 29.2533 150.903 27.76C151.596 26.2667 152.636 25.06 154.023 24.14C155.423 23.22 157.183 22.76 159.303 22.76C160.996 22.76 162.376 23.0467 163.443 23.62C164.51 24.1933 165.336 24.92 165.923 25.8C166.523 26.68 166.95 27.6 167.203 28.56C167.456 29.5067 167.61 30.3733 167.663 31.16C167.716 31.9467 167.743 32.52 167.743 32.88V45H162.223ZM147.463 45V23.4H152.303V30.56H152.983V45H147.463ZM172.893 45L172.933 16.2H178.453V33.8L185.773 23.4H192.493L184.693 34.2L193.013 45H185.933L178.453 34.6V45H172.893Z" fill="#301E4E"/>
<path d="M195.403 45V16.2H200.843V45H195.403ZM213.519 45V21.28H204.439V16.2H228.039V21.28H218.959V45H213.519Z" fill="#FF6E6C"/>
</g>
<g filter="url(#filter1_d_1259_1531)">
<rect x="4" y="20" width="16" height="16" fill="#301E4E"/>
<rect x="48" y="10" width="7" height="7" fill="#FF6E6C"/>
<rect x="48" y="24" width="7" height="7" fill="#FF6E6C"/>
<rect x="48" y="37" width="7" height="7" fill="#FF6E6C"/>
<line x1="34.5" y1="40" x2="34.5" y2="13.9808" stroke="#301E4E"/>
<line x1="19.9906" y1="27.5" x2="34.0001" y2="27.5104" stroke="#301E4E"/>
<line x1="34.0004" y1="13.5" x2="48.0099" y2="13.5104" stroke="#301E4E"/>
<line x1="34.0004" y1="27.5" x2="48.0099" y2="27.5104" stroke="#301E4E"/>
<line x1="34.0004" y1="40.5" x2="48.0099" y2="40.5104" stroke="#301E4E"/>
</g>
<defs>
<filter id="filter0_d_1259_1531" x="61.2002" y="15.6001" width="170.839" height="38.04" filterUnits="userSpaceOnUse" color-interpolation-filters="sRGB">
<feFlood flood-opacity="0" result="BackgroundImageFix"/>
<feColorMatrix in="SourceAlpha" type="matrix" values="0 0 0 0 0 0 0 0 0 0 0 0 0 0 0 0 0 0 127 0" result="hardAlpha"/>
<feOffset dy="4"/>
<feGaussianBlur stdDeviation="2"/>
<feComposite in2="hardAlpha" operator="out"/>
<feColorMatrix type="matrix" values="0 0 0 0 0 0 0 0 0 0 0 0 0 0 0 0 0 0 0.25 0"/>
<feBlend mode="normal" in2="BackgroundImageFix" result="effect1_dropShadow_1259_1531"/>
<feBlend mode="normal" in="SourceGraphic" in2="effect1_dropShadow_1259_1531" result="shape"/>
</filter>
<filter id="filter1_d_1259_1531" x="0" y="10" width="59" height="42" filterUnits="userSpaceOnUse" color-interpolation-filters="sRGB">
<feFlood flood-opacity="0" result="BackgroundImageFix"/>
<feColorMatrix in="SourceAlpha" type="matrix" values="0 0 0 0 0 0 0 0 0 0 0 0 0 0 0 0 0 0 127 0" result="hardAlpha"/>
<feOffset dy="4"/>
<feGaussianBlur stdDeviation="2"/>
<feComposite in2="hardAlpha" operator="out"/>
<feColorMatrix type="matrix" values="0 0 0 0 0 0 0 0 0 0 0 0 0 0 0 0 0 0 0.25 0"/>
<feBlend mode="normal" in2="BackgroundImageFix" result="effect1_dropShadow_1259_1531"/>
<feBlend mode="normal" in="SourceGraphic" in2="effect1_dropShadow_1259_1531" result="shape"/>
</filter>
</defs>
</svg>
