<svg width="41" height="40" viewBox="0 0 41 40" fill="none" xmlns="http://www.w3.org/2000/svg">
<g clip-path="url(#clip0_2192_5487)">
<path d="M32.75 16.7337C31.6167 10.9837 26.5667 6.66699 20.5 6.66699C15.6833 6.66699 11.5 9.40033 9.41667 13.4003C4.4 13.9337 0.5 18.1837 0.5 23.3337C0.5 28.8503 4.98333 33.3337 10.5 33.3337H32.1667C36.7667 33.3337 40.5 29.6003 40.5 25.0003C40.5 20.6003 37.0833 17.0337 32.75 16.7337ZM32.1667 30.0003H10.5C6.81667 30.0003 3.83333 27.017 3.83333 23.3337C3.83333 19.917 6.38333 17.067 9.76667 16.717L11.55 16.5337L12.3833 14.9503C13.9667 11.9003 17.0667 10.0003 20.5 10.0003C24.8667 10.0003 28.6333 13.1003 29.4833 17.3837L29.9833 19.8837L32.5333 20.067C35.1333 20.2337 37.1667 22.417 37.1667 25.0003C37.1667 27.7503 34.9167 30.0003 32.1667 30.0003ZM13.8333 21.667H18.0833V26.667H22.9167V21.667H27.1667L20.5 15.0003L13.8333 21.667Z" fill="#301E4E"/>
</g>
<defs>
<clipPath id="clip0_2192_5487">
<rect width="40" height="40" fill="white" transform="translate(0.5)"/>
</clipPath>
</defs>
</svg>
