<svg width="25" height="24" viewBox="0 0 25 24" fill="none" xmlns="http://www.w3.org/2000/svg">
<path d="M10.58 10.86C10.63 10.53 10.74 10.24 10.88 9.99C11.02 9.74 11.22 9.53 11.47 9.37C11.71 9.22 12.01 9.15 12.38 9.14C12.61 9.15 12.82 9.19 13.01 9.27C13.21 9.36 13.39 9.48 13.53 9.63C13.67 9.78 13.78 9.96 13.87 10.16C13.96 10.36 14 10.58 14.01 10.8H15.8C15.78 10.33 15.69 9.9 15.52 9.51C15.35 9.12 15.12 8.78 14.82 8.5C14.52 8.22 14.16 8 13.74 7.84C13.32 7.68 12.86 7.61 12.35 7.61C11.7 7.61 11.13 7.72 10.65 7.95C10.17 8.18 9.77 8.48 9.45 8.87C9.13 9.26 8.89 9.71 8.74 10.23C8.59 10.75 8.5 11.29 8.5 11.87V12.14C8.5 12.72 8.58 13.26 8.73 13.78C8.88 14.3 9.12 14.75 9.44 15.13C9.76 15.51 10.16 15.82 10.64 16.04C11.12 16.26 11.69 16.38 12.34 16.38C12.81 16.38 13.25 16.3 13.66 16.15C14.07 16 14.43 15.79 14.74 15.52C15.05 15.25 15.3 14.94 15.48 14.58C15.66 14.22 15.77 13.84 15.78 13.43H13.99C13.98 13.64 13.93 13.83 13.84 14.01C13.75 14.19 13.63 14.34 13.48 14.47C13.33 14.6 13.16 14.7 12.96 14.77C12.77 14.84 12.57 14.86 12.36 14.87C12 14.86 11.7 14.79 11.47 14.64C11.22 14.48 11.02 14.27 10.88 14.02C10.74 13.77 10.63 13.47 10.58 13.14C10.53 12.81 10.5 12.47 10.5 12.14V11.87C10.5 11.52 10.53 11.19 10.58 10.86ZM12.5 2C6.98 2 2.5 6.48 2.5 12C2.5 17.52 6.98 22 12.5 22C18.02 22 22.5 17.52 22.5 12C22.5 6.48 18.02 2 12.5 2ZM12.5 20C8.09 20 4.5 16.41 4.5 12C4.5 7.59 8.09 4 12.5 4C16.91 4 20.5 7.59 20.5 12C20.5 16.41 16.91 20 12.5 20Z" fill="#301E4E"/>
</svg>
