<?xml version="1.0" encoding="utf-8"?>
<!-- Svg Vector Icons : http://www.onlinewebfonts.com/icon -->
<!DOCTYPE svg PUBLIC "-//W3C//DTD SVG 1.1//EN" "http://www.w3.org/Graphics/SVG/1.1/DTD/svg11.dtd">
<svg version="1.1" xmlns="http://www.w3.org/2000/svg" xmlns:xlink="http://www.w3.org/1999/xlink" x="0px" y="0px" viewBox="0 0 1000 1000" height= "15px" width="15px" enable-background="new 0 0 1000 1000" xml:space="preserve">
<metadata> Svg Vector Icons : http://www.onlinewebfonts.com/icon </metadata>
<g><path d="M500,10C229.4,10,10,229.4,10,500s219.4,490,490,490s490-219.4,490-490S770.6,10,500,10z M500,928.8c-236.7,0-428.8-192-428.8-428.8c0-236.8,192-428.8,428.8-428.8c236.9,0,428.8,192,428.8,428.8C928.8,736.8,736.9,928.8,500,928.8z"/><path d="M546,612.3c0,25.4-20.6,45.9-45.9,45.9l0,0c-25.4,0-45.9-20.6-45.9-45.9V214.1c0-25.4,20.6-45.9,45.9-45.9l0,0c25.4,0,45.9,20.6,45.9,45.9V612.3z"/><path d="M438.8,770.6c0,33.8,27.4,61.3,61.3,61.3c33.8,0,61.3-27.4,61.3-61.3c0-33.8-27.4-61.3-61.3-61.3C466.2,709.4,438.8,736.8,438.8,770.6z"/></g>
</svg>