<svg width="40" height="40" viewBox="0 0 40 40" fill="none" xmlns="http://www.w3.org/2000/svg">
<path d="M7.50033 33.3337V16.667H27.5003V18.3337C28.667 18.3337 29.7837 18.5003 30.8337 18.817V16.667C30.8337 14.8337 29.3337 13.3337 27.5003 13.3337H25.8337V10.0003C25.8337 5.40033 22.1003 1.66699 17.5003 1.66699C12.9003 1.66699 9.16699 5.40033 9.16699 10.0003V13.3337H7.50033C5.66699 13.3337 4.16699 14.8337 4.16699 16.667V33.3337C4.16699 35.167 5.66699 36.667 7.50033 36.667H17.9337C17.2337 35.667 16.6837 34.5337 16.317 33.3337H7.50033ZM12.5003 10.0003C12.5003 7.23366 14.7337 5.00033 17.5003 5.00033C20.267 5.00033 22.5003 7.23366 22.5003 10.0003V13.3337H12.5003V10.0003Z" fill="#301E4E"/>
<path d="M27.5003 21.667C22.9003 21.667 19.167 25.4003 19.167 30.0003C19.167 34.6003 22.9003 38.3337 27.5003 38.3337C32.1003 38.3337 35.8337 34.6003 35.8337 30.0003C35.8337 25.4003 32.1003 21.667 27.5003 21.667ZM27.5003 25.0003C28.8837 25.0003 30.0003 26.117 30.0003 27.5003C30.0003 28.8837 28.8837 30.0003 27.5003 30.0003C26.117 30.0003 25.0003 28.8837 25.0003 27.5003C25.0003 26.117 26.117 25.0003 27.5003 25.0003ZM27.5003 35.0003C25.7837 35.0003 24.267 34.1337 23.367 32.8003C24.5837 32.1003 25.9837 31.667 27.5003 31.667C29.017 31.667 30.417 32.1003 31.6337 32.8003C30.7337 34.1337 29.217 35.0003 27.5003 35.0003Z" fill="#301E4E"/>
</svg>
