<svg width="25" height="24" viewBox="0 0 25 24" fill="none" xmlns="http://www.w3.org/2000/svg">
<path d="M4.58496 17.5V16.85C4.58496 16.51 4.74496 16.19 4.99496 16.04C6.68496 15.03 8.61496 14.5 10.585 14.5C10.615 14.5 10.635 14.5 10.665 14.51C10.765 13.81 10.965 13.14 11.255 12.53C11.035 12.51 10.815 12.5 10.585 12.5C8.16496 12.5 5.90496 13.17 3.97496 14.32C3.09496 14.84 2.58496 15.82 2.58496 16.85V19.5H11.845C11.425 18.9 11.095 18.22 10.875 17.5H4.58496Z" fill="#0A0610"/>
<path d="M10.585 11.5C12.795 11.5 14.585 9.71 14.585 7.5C14.585 5.29 12.795 3.5 10.585 3.5C8.37496 3.5 6.58496 5.29 6.58496 7.5C6.58496 9.71 8.37496 11.5 10.585 11.5ZM10.585 5.5C11.685 5.5 12.585 6.4 12.585 7.5C12.585 8.6 11.685 9.5 10.585 9.5C9.48496 9.5 8.58496 8.6 8.58496 7.5C8.58496 6.4 9.48496 5.5 10.585 5.5Z" fill="#0A0610"/>
<path d="M21.335 15.5C21.335 15.28 21.305 15.08 21.275 14.87L22.415 13.86L21.415 12.13L19.965 12.62C19.645 12.35 19.285 12.14 18.885 11.99L18.585 10.5H16.585L16.285 11.99C15.885 12.14 15.525 12.35 15.205 12.62L13.755 12.13L12.755 13.86L13.895 14.87C13.865 15.08 13.835 15.28 13.835 15.5C13.835 15.72 13.865 15.92 13.895 16.13L12.755 17.14L13.755 18.87L15.205 18.38C15.525 18.65 15.885 18.86 16.285 19.01L16.585 20.5H18.585L18.885 19.01C19.285 18.86 19.645 18.65 19.965 18.38L21.415 18.87L22.415 17.14L21.275 16.13C21.305 15.92 21.335 15.72 21.335 15.5ZM17.585 17.5C16.485 17.5 15.585 16.6 15.585 15.5C15.585 14.4 16.485 13.5 17.585 13.5C18.685 13.5 19.585 14.4 19.585 15.5C19.585 16.6 18.685 17.5 17.585 17.5Z" fill="#0A0610"/>
</svg>
