<svg width="449" height="401" viewBox="0 0 449 401" fill="none" xmlns="http://www.w3.org/2000/svg">
<path d="M448.193 351.547H0V351.815H448.193V351.547Z" fill="#D9D9D9"/>
<path d="M318.216 365.075H308.822V365.344H318.216V365.075Z" fill="#D9D9D9"/>
<path d="M67.2825 358.032H58.2021V358.301H67.2825V358.032Z" fill="#D9D9D9"/>
<path d="M165.034 364.946H137.551V365.215H165.034V364.946Z" fill="#D9D9D9"/>
<path d="M209.754 358.815H192.113V359.084H209.754V358.815Z" fill="#D9D9D9"/>
<path d="M385.105 360.522H338.099V360.791H385.105V360.522Z" fill="#D9D9D9"/>
<path d="M110.22 358.032H71.6123V358.301H110.22V358.032Z" fill="#D9D9D9"/>
<path d="M405.095 360.651H390.331V360.92H405.095V360.651Z" fill="#D9D9D9"/>
<path d="M212.443 303.662H39.3604C38.0045 303.659 36.7049 303.012 35.7469 301.863C34.789 300.713 34.251 299.156 34.251 297.532V6.11008C34.2628 4.49533 34.806 2.95137 35.7627 1.81355C36.7193 0.675739 38.0122 0.0359693 39.3604 0.0332031H212.443C213.801 0.0332031 215.103 0.679099 216.063 1.8288C217.023 2.9785 217.562 4.53783 217.562 6.16376V297.532C217.562 299.158 217.023 300.717 216.063 301.867C215.103 303.016 213.801 303.662 212.443 303.662ZM39.3604 0.247934C38.0639 0.250779 36.8213 0.869648 35.9054 1.96871C34.9895 3.06776 34.4751 4.5572 34.4751 6.11008V297.532C34.4751 299.084 34.9895 300.574 35.9054 301.673C36.8213 302.772 38.0639 303.391 39.3604 303.394H212.443C213.741 303.391 214.984 302.772 215.902 301.674C216.819 300.575 217.335 299.085 217.338 297.532V6.11008C217.335 4.55621 216.819 3.0668 215.902 1.96805C214.984 0.8693 213.741 0.250773 212.443 0.247934H39.3604Z" fill="#D9D9D9"/>
<path d="M406.34 303.662H233.248C231.891 303.659 230.591 303.013 229.632 301.863C228.672 300.714 228.132 299.157 228.13 297.532V6.11008C228.144 4.49435 228.689 2.9504 229.647 1.81288C230.605 0.675364 231.899 0.0359391 233.248 0.0332031H406.34C407.687 0.0387909 408.977 0.67981 409.932 1.81732C410.887 2.95483 411.429 4.49718 411.441 6.11008V297.532C411.441 299.154 410.904 300.71 409.948 301.859C408.992 303.008 407.695 303.656 406.34 303.662ZM233.248 0.247934C231.951 0.250773 230.707 0.8693 229.79 1.96805C228.873 3.0668 228.356 4.55621 228.354 6.11008V297.532C228.356 299.085 228.873 300.575 229.79 301.674C230.707 302.772 231.951 303.391 233.248 303.394H406.34C407.638 303.391 408.881 302.772 409.798 301.674C410.716 300.575 411.232 299.085 411.235 297.532V6.11008C411.232 4.55621 410.716 3.0668 409.798 1.96805C408.881 0.8693 407.638 0.250773 406.34 0.247934H233.248Z" fill="#D9D9D9"/>
<path d="M390.698 287.096H366.048V351.547H390.698V287.096Z" fill="#BAB4C4"/>
<path d="M386.02 351.547H390.699V335.593H381.107L386.02 351.547Z" fill="#F5F5F5"/>
<path d="M250.037 287.096H225.387V351.547H250.037V287.096Z" fill="#EBEBEB"/>
<path d="M390.699 287.096H245.95V341.755H390.699V287.096Z" fill="#F5F5F5"/>
<path d="M250.764 292.313V321.807H293.674V292.313H250.764Z" fill="#BAB4C4"/>
<path d="M276.463 296.781H268.019C266.194 296.78 264.388 296.334 262.711 295.47C261.035 294.606 259.522 293.342 258.267 291.756H286.216C284.96 293.342 283.448 294.606 281.771 295.47C280.094 296.334 278.288 296.78 276.463 296.781Z" fill="#D9D9D9"/>
<path d="M296.865 292.313V321.807H339.775V292.313H296.865Z" fill="#BAB4C4"/>
<path d="M323.004 296.781H314.515C312.691 296.778 310.887 296.332 309.212 295.468C307.537 294.604 306.026 293.341 304.771 291.756H332.757C331.501 293.342 329.989 294.606 328.312 295.47C326.635 296.334 324.829 296.78 323.004 296.781Z" fill="#D9D9D9"/>
<path d="M342.976 292.324V321.817H385.886V292.324H342.976Z" fill="#BAB4C4"/>
<path d="M369.114 296.781H360.625C358.8 296.78 356.994 296.334 355.317 295.47C353.64 294.606 352.128 293.342 350.872 291.756H378.857C377.603 293.341 376.092 294.604 374.417 295.468C372.742 296.332 370.937 296.778 369.114 296.781Z" fill="#D9D9D9"/>
<path d="M250.629 351.547H245.95V335.593H255.542L250.629 351.547Z" fill="#F5F5F5"/>
<path d="M276.454 20.4219H56.3555V162.638H276.454V20.4219Z" fill="#BAB4C4"/>
<path d="M280.999 20.4219H58.4805V162.638H280.999V20.4219Z" fill="#EBEBEB"/>
<path d="M276.454 162.638H56.3555V172.773H276.454V162.638Z" fill="#BAB4C4"/>
<path d="M288.582 162.638H66.0635V172.773H288.582V162.638Z" fill="#BAB4C4"/>
<path d="M274.626 155.004V28.0557L64.8538 28.0557V155.004H274.626Z" fill="#FAFAFA"/>
<path d="M77.0439 155.004L114.459 28.0557H132.118L94.7027 155.004H77.0439Z" fill="white"/>
<path d="M67.8024 111.973C67.674 111.973 67.5509 111.912 67.4601 111.803C67.3694 111.694 67.3184 111.547 67.3184 111.393V33.0163C67.3183 32.8615 67.369 32.7129 67.4596 32.6025C67.5501 32.4921 67.6732 32.4286 67.8024 32.4258C67.9332 32.4258 68.0586 32.488 68.151 32.5987C68.2435 32.7095 68.2954 32.8597 68.2954 33.0163V111.393C68.2931 111.548 68.2401 111.695 68.1479 111.804C68.0557 111.912 67.9316 111.973 67.8024 111.973Z" fill="#BAB4C4"/>
<path d="M98.5039 155.004L135.91 28.0557H142.794L105.388 155.004H98.5039Z" fill="white"/>
<path d="M274.626 155.004V28.0557H273.819V155.004H274.626Z" fill="#BAB4C4"/>
<path d="M282.504 37.8255H62.4149L61.8232 31.0186H281.922L282.504 37.8255Z" fill="#EBEBEB"/>
<path d="M282.504 42.7972H62.4149L61.8232 36.001H281.922L282.504 42.7972Z" fill="#EBEBEB"/>
<path d="M282.504 48.7767H62.4149L61.8232 41.9697H281.922L282.504 48.7767Z" fill="#EBEBEB"/>
<path d="M282.504 55.4232H62.4149L61.8232 48.6162H281.922L282.504 55.4232Z" fill="#EBEBEB"/>
<path d="M282.504 63.3792H62.4149L61.8232 56.583H281.922L282.504 63.3792Z" fill="#BAB4C4"/>
<path d="M282.504 72.3441H62.4149L61.8232 65.5479H281.922L282.504 72.3441Z" fill="#BAB4C4"/>
<path d="M337.481 80.5576H306.779V122.924H337.481V80.5576Z" fill="#EBEBEB"/>
<path d="M343.693 80.5576H310.419V122.924H343.693V80.5576Z" fill="#F5F5F5"/>
<path d="M340.904 119.585V83.8965H313.206V119.585H340.904Z" fill="white"/>
<path d="M334.19 108.01V95.4809C334.19 93.8621 333.095 92.5498 331.743 92.5498H322.367C321.016 92.5498 319.92 93.8621 319.92 95.4809V108.01C319.92 109.629 321.016 110.941 322.367 110.941H331.743C333.095 110.941 334.19 109.629 334.19 108.01Z" fill="#FAFAFA"/>
<path d="M383.814 61.9297H353.113V104.296H383.814V61.9297Z" fill="#EBEBEB"/>
<path d="M390.026 61.9297H356.752V104.296H390.026V61.9297Z" fill="#F5F5F5"/>
<path d="M387.229 100.957V65.2686H359.531V100.957H387.229Z" fill="white"/>
<path d="M380.516 89.3717V76.853C380.516 75.2342 379.42 73.9219 378.068 73.9219H368.692C367.341 73.9219 366.245 75.2342 366.245 76.853V89.3717C366.245 90.9905 367.341 92.3028 368.692 92.3028H378.068C379.42 92.3028 380.516 90.9905 380.516 89.3717Z" fill="#FAFAFA"/>
<path d="M233.356 226.22H183.553V351.547H233.356V226.22Z" fill="#BAB4C4"/>
<path d="M228.355 351.547H233.356V334.476H223.093L228.355 351.547Z" fill="#BAB4C4"/>
<path d="M110.847 226.22H61.0439V351.547H110.847V226.22Z" fill="#BAB4C4"/>
<path d="M233.356 226.22H106.473V341.079H233.356V226.22Z" fill="#F5F5F5"/>
<path d="M228.417 231.309H109.306V262.81H228.417V231.309Z" fill="#BAB4C4"/>
<path d="M175.539 241.101H164.289C159.404 241.101 154.734 237.214 151.372 230.364H188.465C185.103 237.214 180.433 241.101 175.539 241.101Z" fill="#F5F5F5"/>
<path d="M111.483 351.547H106.473V334.476H116.736L111.483 351.547Z" fill="#BAB4C4"/>
<path d="M228.417 267.898H109.306V299.399H228.417V267.898Z" fill="#BAB4C4"/>
<path d="M175.539 277.68H164.289C159.404 277.68 154.734 273.793 151.372 266.943H188.465C185.103 273.815 180.433 277.68 175.539 277.68Z" fill="#F5F5F5"/>
<path d="M228.417 304.489H109.306V335.99H228.417V304.489Z" fill="#BAB4C4"/>
<path d="M175.539 314.27H164.289C159.404 314.27 154.734 310.383 151.372 303.533H188.465C185.103 310.383 180.433 314.27 175.539 314.27Z" fill="#F5F5F5"/>
<path d="M342.894 275.533H344.382C344.382 271.871 344.382 262.563 344.543 241.24C344.803 202.589 345.323 200.237 345.323 200.237L341.782 218.081C339.533 237.837 342.419 257.71 342.894 275.533Z" fill="#BAB4C4"/>
<path d="M336.306 211.468C328.517 202.245 313.305 201.01 297.762 200.237C291.666 199.937 314.793 213.969 326.383 224.48C335.347 232.64 340.878 234.562 343.863 243.366C344.212 231.942 343.02 219.413 336.306 211.468Z" fill="#BAB4C4"/>
<path d="M344.866 191.412C350.146 179.398 363.43 168.081 378.337 163.798C384.182 162.112 364.775 185.979 357.398 201.375C351.67 213.336 344.068 227.379 342.894 237.472C341.11 217.469 339.586 203.426 344.866 191.412Z" fill="#BAB4C4"/>
<path d="M344.212 287.095C341.713 287.092 339.31 285.945 337.493 283.889C335.677 281.834 334.585 279.024 334.441 276.036L333.545 265.439H354.816L353.92 276.036C353.774 279.011 352.691 281.808 350.888 283.861C349.086 285.914 346.699 287.07 344.212 287.095Z" fill="#D9D9D9"/>
<path d="M356.206 269.52H332.174L331.483 257.71H356.896L356.206 269.52Z" fill="#F5F5F5"/>
<path d="M224.097 400.033C320.084 400.033 397.897 394.592 397.897 387.879C397.897 381.167 320.084 375.726 224.097 375.726C128.11 375.726 50.2969 381.167 50.2969 387.879C50.2969 394.592 128.11 400.033 224.097 400.033Z" fill="#F5F5F5"/>
<path d="M220.027 94.3107C221.246 112.563 238.851 136.269 244.481 143.441C244.702 143.725 244.97 143.952 245.267 144.107C245.565 144.262 245.886 144.341 246.211 144.341C246.535 144.341 246.856 144.262 247.154 144.107C247.451 143.952 247.719 143.725 247.941 143.441C253.588 136.269 271.175 112.552 272.394 94.3107C272.436 93.7506 272.34 93.1882 272.119 92.6923C271.897 92.1964 271.56 91.7887 271.148 91.5192L247.34 76.1338C246.994 75.9063 246.605 75.7871 246.211 75.7871C245.816 75.7871 245.427 75.9063 245.081 76.1338L221.273 91.5192C220.863 91.7908 220.527 92.1989 220.305 92.6943C220.084 93.1896 219.988 93.751 220.027 94.3107Z" fill="#301E4E"/>
<path opacity="0.3" d="M244.444 136.527C237.273 126.865 226.875 110.62 224.392 97.6934C224.279 97.0926 224.329 96.4643 224.536 95.9003C224.742 95.3363 225.094 94.8661 225.539 94.5583L245.027 81.1376C245.388 80.89 245.798 80.7598 246.214 80.7598C246.631 80.7598 247.04 80.89 247.402 81.1376L266.889 94.5154C267.347 94.8295 267.705 95.315 267.909 95.897C268.113 96.4791 268.152 97.1254 268.019 97.7363C265.545 110.685 255.183 126.865 247.976 136.57C247.752 136.867 247.478 137.104 247.172 137.264C246.866 137.425 246.536 137.506 246.202 137.502C245.868 137.498 245.538 137.409 245.235 137.241C244.932 137.073 244.663 136.83 244.444 136.527Z" fill="#301E4E"/>
<path opacity="0.3" d="M244.444 136.527C237.273 126.865 226.875 110.62 224.392 97.6934C224.279 97.0926 224.329 96.4643 224.536 95.9003C224.742 95.3363 225.094 94.8661 225.539 94.5583L245.027 81.1376C245.388 80.89 245.798 80.7598 246.214 80.7598C246.631 80.7598 247.04 80.89 247.402 81.1376L266.889 94.5154C267.347 94.8295 267.705 95.315 267.909 95.897C268.113 96.4791 268.152 97.1254 268.019 97.7363C265.545 110.685 255.183 126.865 247.976 136.57C247.752 136.867 247.478 137.104 247.172 137.264C246.866 137.425 246.536 137.506 246.202 137.502C245.868 137.498 245.538 137.409 245.235 137.241C244.932 137.073 244.663 136.83 244.444 136.527Z" fill="white"/>
<path d="M243.557 116.933C243.38 116.933 243.205 116.891 243.042 116.81C242.879 116.729 242.731 116.61 242.607 116.46L235.964 108.472C235.727 108.167 235.598 107.763 235.604 107.346C235.61 106.929 235.751 106.531 235.997 106.236C236.244 105.941 236.576 105.771 236.924 105.764C237.273 105.757 237.61 105.912 237.865 106.196L243.557 113.003L257.003 96.952C257.256 96.653 257.597 96.4854 257.953 96.4854C258.308 96.4854 258.65 96.653 258.903 96.952C259.029 97.1008 259.128 97.278 259.197 97.4733C259.265 97.6687 259.3 97.8783 259.3 98.09C259.3 98.3018 259.265 98.5114 259.197 98.7067C259.128 98.9021 259.029 99.0793 258.903 99.2281L244.561 116.407C244.433 116.572 244.277 116.704 244.105 116.795C243.932 116.885 243.745 116.932 243.557 116.933Z" fill="white"/>
<path d="M299.993 160.361H175.691C169.75 160.361 164.935 166.13 164.935 173.245V368.543C164.935 375.658 169.75 381.426 175.691 381.426H299.993C305.934 381.426 310.75 375.658 310.75 368.543V173.245C310.75 166.13 305.934 160.361 299.993 160.361Z" fill="#263238"/>
<path d="M308.365 160.361H184.063C178.123 160.361 173.307 166.13 173.307 173.245V368.543C173.307 375.658 178.123 381.426 184.063 381.426H308.365C314.306 381.426 319.122 375.658 319.122 368.543V173.245C319.122 166.13 314.306 160.361 308.365 160.361Z" fill="#301E4E"/>
<path d="M198.782 381.438H186.681C186.31 381.438 186.009 381.798 186.009 382.243V384.573C186.009 385.017 186.31 385.378 186.681 385.378H198.782C199.154 385.378 199.455 385.017 199.455 384.573V382.243C199.455 381.798 199.154 381.438 198.782 381.438Z" fill="#263238"/>
<path d="M305.738 381.438H293.637C293.266 381.438 292.965 381.798 292.965 382.243V384.573C292.965 385.017 293.266 385.378 293.637 385.378H305.738C306.11 385.378 306.411 385.017 306.411 384.573V382.243C306.411 381.798 306.11 381.438 305.738 381.438Z" fill="#263238"/>
<path opacity="0.2" d="M308.365 160.361H184.063C178.123 160.361 173.307 166.13 173.307 173.245V368.543C173.307 375.658 178.123 381.426 184.063 381.426H308.365C314.306 381.426 319.122 375.658 319.122 368.543V173.245C319.122 166.13 314.306 160.361 308.365 160.361Z" fill="black"/>
<g style="mix-blend-mode:color-dodge" opacity="0.4">
<path d="M293.718 355.938H198.701C197.613 355.935 196.57 355.416 195.801 354.494C195.031 353.573 194.598 352.324 194.596 351.02V190.788C194.596 189.483 195.028 188.231 195.798 187.308C196.567 186.384 197.611 185.863 198.701 185.86H293.718C294.808 185.863 295.852 186.384 296.622 187.308C297.391 188.231 297.823 189.483 297.823 190.788V351.02C297.821 352.324 297.388 353.573 296.618 354.494C295.849 355.416 294.806 355.935 293.718 355.938ZM198.701 186.397C197.73 186.4 196.8 186.864 196.115 187.687C195.429 188.51 195.044 189.626 195.044 190.788V351.02C195.044 351.596 195.138 352.165 195.322 352.697C195.506 353.228 195.775 353.711 196.115 354.118C196.455 354.525 196.858 354.847 197.302 355.067C197.745 355.288 198.221 355.401 198.701 355.401H293.718C294.688 355.401 295.618 354.939 296.304 354.118C296.99 353.296 297.375 352.182 297.375 351.02V190.788C297.375 189.626 296.99 188.51 296.305 187.687C295.619 186.864 294.689 186.4 293.718 186.397H198.701Z" fill="#BAB4C4"/>
</g>
<path d="M295.815 351.021V190.778C295.815 189.396 294.88 188.276 293.727 188.276H198.701C197.548 188.276 196.612 189.396 196.612 190.778V351.021C196.612 352.402 197.548 353.522 198.701 353.522H293.727C294.88 353.522 295.815 352.402 295.815 351.021Z" fill="#301E4E"/>
<path opacity="0.1" d="M295.815 351.021V190.778C295.815 189.396 294.88 188.276 293.727 188.276H198.701C197.548 188.276 196.612 189.396 196.612 190.778V351.021C196.612 352.402 197.548 353.522 198.701 353.522H293.727C294.88 353.522 295.815 352.402 295.815 351.021Z" fill="white"/>
<path d="M322.25 205.938H321.354V214.999H322.25V205.938Z" fill="#301E4E"/>
<path d="M322.25 173.245H321.354V196.393H322.25V173.245Z" fill="#301E4E"/>
<path opacity="0.1" d="M246.21 310.64C263.092 310.64 276.777 294.249 276.777 274.029C276.777 253.809 263.092 237.417 246.21 237.417C229.329 237.417 215.644 253.809 215.644 274.029C215.644 294.249 229.329 310.64 246.21 310.64Z" fill="black"/>
<path d="M246.21 219.66C250.334 219.66 253.677 215.655 253.677 210.716C253.677 205.777 250.334 201.772 246.21 201.772C242.086 201.772 238.743 205.777 238.743 210.716C238.743 215.655 242.086 219.66 246.21 219.66Z" fill="#301E4E"/>
<path opacity="0.6" d="M246.165 219.638C250.289 219.638 253.632 215.634 253.632 210.695C253.632 205.755 250.289 201.751 246.165 201.751C242.041 201.751 238.698 205.755 238.698 210.695C238.698 215.634 242.041 219.638 246.165 219.638Z" fill="white"/>
<path d="M246.21 217.781C245.043 217.781 243.903 217.366 242.933 216.59C241.963 215.814 241.207 214.71 240.761 213.42C240.314 212.129 240.197 210.708 240.425 209.338C240.652 207.967 241.214 206.709 242.039 205.721C242.864 204.733 243.915 204.06 245.059 203.787C246.203 203.515 247.389 203.654 248.467 204.189C249.545 204.724 250.466 205.629 251.114 206.791C251.762 207.953 252.108 209.319 252.108 210.716C252.106 212.589 251.483 214.384 250.378 215.708C249.272 217.033 247.773 217.778 246.21 217.781ZM246.21 204.188C245.132 204.188 244.078 204.571 243.182 205.288C242.286 206.006 241.587 207.025 241.175 208.218C240.762 209.411 240.654 210.723 240.864 211.99C241.075 213.256 241.594 214.419 242.356 215.332C243.118 216.245 244.089 216.867 245.147 217.118C246.204 217.37 247.3 217.241 248.295 216.747C249.291 216.253 250.142 215.416 250.741 214.343C251.34 213.269 251.66 212.007 251.66 210.716C251.657 208.986 251.082 207.327 250.061 206.103C249.039 204.88 247.654 204.191 246.21 204.188Z" fill="#301E4E"/>
<path d="M196.487 209.32H193.162C192.429 209.32 191.835 210.032 191.835 210.909V232.704C191.835 233.582 192.429 234.293 193.162 234.293H196.487C197.22 234.293 197.814 233.582 197.814 232.704V210.909C197.814 210.032 197.22 209.32 196.487 209.32Z" fill="#301E4E"/>
<path opacity="0.6" d="M196.487 209.32H193.162C192.429 209.32 191.835 210.032 191.835 210.909V232.704C191.835 233.582 192.429 234.293 193.162 234.293H196.487C197.22 234.293 197.814 233.582 197.814 232.704V210.909C197.814 210.032 197.22 209.32 196.487 209.32Z" fill="white"/>
<path d="M196.487 307.506H193.162C192.429 307.506 191.835 308.217 191.835 309.095V330.89C191.835 331.768 192.429 332.479 193.162 332.479H196.487C197.22 332.479 197.814 331.768 197.814 330.89V309.095C197.814 308.217 197.22 307.506 196.487 307.506Z" fill="#301E4E"/>
<path opacity="0.6" d="M196.487 307.506H193.162C192.429 307.506 191.835 308.217 191.835 309.095V330.89C191.835 331.768 192.429 332.479 193.162 332.479H196.487C197.22 332.479 197.814 331.768 197.814 330.89V309.095C197.814 308.217 197.22 307.506 196.487 307.506Z" fill="white"/>
<path d="M246.21 307.516C263.092 307.516 276.777 291.125 276.777 270.905C276.777 250.685 263.092 234.293 246.21 234.293C229.329 234.293 215.644 250.685 215.644 270.905C215.644 291.125 229.329 307.516 246.21 307.516Z" fill="#301E4E"/>
<path opacity="0.6" d="M246.21 307.516C263.092 307.516 276.777 291.125 276.777 270.905C276.777 250.685 263.092 234.293 246.21 234.293C229.329 234.293 215.644 250.685 215.644 270.905C215.644 291.125 229.329 307.516 246.21 307.516Z" fill="white"/>
<path d="M231.087 251.26L229.819 252.778L261.347 290.54L262.614 289.022L231.087 251.26Z" fill="#301E4E"/>
<path d="M261.347 251.26L229.819 289.021L231.087 290.54L262.614 252.778L261.347 251.26Z" fill="#301E4E"/>
<path opacity="0.2" d="M261.243 251.137L229.716 288.899L230.984 290.418L262.511 252.656L261.243 251.137Z" fill="black"/>
<path opacity="0.2" d="M230.99 251.145L229.723 252.663L261.25 290.425L262.518 288.907L230.99 251.145Z" fill="black"/>
<path d="M246.121 298.572C241.53 298.574 237.043 296.946 233.225 293.893C229.407 290.84 226.431 286.499 224.673 281.42C222.916 276.341 222.455 270.752 223.349 265.359C224.244 259.966 226.453 255.012 229.698 251.124C232.944 247.235 237.079 244.587 241.581 243.513C246.083 242.44 250.75 242.99 254.991 245.093C259.232 247.197 262.857 250.76 265.407 255.331C267.958 259.903 269.319 265.277 269.319 270.775C269.314 278.144 266.869 285.209 262.52 290.421C258.171 295.632 252.273 298.564 246.121 298.572ZM246.121 245.126C241.885 245.124 237.744 246.626 234.221 249.443C230.698 252.26 227.952 256.266 226.33 260.952C224.708 265.639 224.282 270.797 225.107 275.773C225.933 280.749 227.972 285.32 230.966 288.909C233.961 292.497 237.776 294.941 241.931 295.931C246.085 296.922 250.391 296.415 254.305 294.474C258.218 292.532 261.563 289.245 263.917 285.027C266.27 280.808 267.526 275.849 267.526 270.775C267.522 263.976 265.265 257.457 261.252 252.648C257.239 247.84 251.797 245.134 246.121 245.126Z" fill="#301E4E"/>
<path d="M252.978 278.999C256.769 274.458 256.769 267.096 252.978 262.555C249.187 258.014 243.04 258.014 239.249 262.555C235.458 267.096 235.458 274.458 239.249 278.999C243.04 283.54 249.187 283.54 252.978 278.999Z" fill="#301E4E"/>
<path opacity="0.2" d="M246.121 298.572C241.53 298.574 237.043 296.946 233.225 293.893C229.407 290.84 226.431 286.499 224.673 281.42C222.916 276.341 222.455 270.752 223.349 265.359C224.244 259.966 226.453 255.012 229.698 251.124C232.944 247.235 237.079 244.587 241.581 243.513C246.083 242.44 250.75 242.99 254.991 245.093C259.232 247.197 262.857 250.76 265.407 255.331C267.958 259.903 269.319 265.277 269.319 270.775C269.314 278.144 266.869 285.209 262.52 290.421C258.171 295.632 252.273 298.564 246.121 298.572ZM246.121 245.126C241.885 245.124 237.744 246.626 234.221 249.443C230.698 252.26 227.952 256.266 226.33 260.952C224.708 265.639 224.282 270.797 225.107 275.773C225.933 280.749 227.972 285.32 230.966 288.909C233.961 292.497 237.776 294.941 241.931 295.931C246.085 296.922 250.391 296.415 254.305 294.474C258.218 292.532 261.563 289.245 263.917 285.027C266.27 280.808 267.526 275.849 267.526 270.775C267.522 263.976 265.265 257.457 261.252 252.648C257.239 247.84 251.797 245.134 246.121 245.126Z" fill="black"/>
<path opacity="0.2" d="M252.978 278.999C256.769 274.458 256.769 267.096 252.978 262.555C249.187 258.014 243.04 258.014 239.249 262.555C235.458 267.096 235.458 274.458 239.249 278.999C243.04 283.54 249.187 283.54 252.978 278.999Z" fill="black"/>
<path d="M171.209 115.729C173.37 121.731 175.602 127.808 177.86 133.788C180.119 139.769 182.432 145.738 184.906 151.439C185.543 152.835 186.152 154.284 186.815 155.605L187.299 156.614L187.55 157.119C187.525 157.078 187.495 157.041 187.461 157.011C187.353 156.936 187.461 157.087 187.676 157.269C188.499 157.8 189.389 158.163 190.311 158.343C191.497 158.607 192.694 158.794 193.897 158.901C196.434 159.105 199.114 159.105 201.803 159.008L205.873 158.804L209.924 158.482L210.973 164.323C205.437 166.538 199.691 167.915 193.87 168.424C192.299 168.545 190.723 168.527 189.155 168.371C187.304 168.221 185.487 167.706 183.777 166.846C182.592 166.226 181.527 165.319 180.648 164.183C180.385 163.847 180.142 163.488 179.922 163.11L179.608 162.551L178.999 161.478C178.147 159.996 177.43 158.515 176.659 157.022C173.755 151.063 171.156 145.029 168.717 138.942C166.279 132.854 164.011 126.713 161.878 120.411L171.209 115.729Z" fill="#7F3E3B"/>
<path d="M159.305 114.913C157.271 122.043 169.228 143.011 169.228 143.011L180.684 135.41C178.739 128.868 176.442 122.485 173.809 116.299C169.766 107.226 161.537 107.087 159.305 114.913Z" fill="#301E4E"/>
<path opacity="0.5" d="M159.305 114.913C157.271 122.043 169.228 143.011 169.228 143.011L180.684 135.41C178.739 128.868 176.442 122.485 173.809 116.299C169.766 107.226 161.537 107.087 159.305 114.913Z" fill="white"/>
<path d="M159.135 115.805C161.699 114.334 164.657 115.569 167.758 121.452C170.86 127.336 173.513 137.16 173.809 139.962L169.228 143C169.228 143 158.185 123.632 159.135 115.805Z" fill="#301E4E"/>
<path opacity="0.4" d="M159.135 115.805C161.699 114.334 164.657 115.569 167.758 121.452C170.86 127.336 173.513 137.16 173.809 139.962L169.228 143C169.228 143 158.185 123.632 159.135 115.805Z" fill="white"/>
<path d="M167.041 109.46C167.041 109.46 175.574 133.499 169.416 178.259H133.883C133.444 171.721 135.954 139.844 129.796 109.052C133.703 108.14 137.655 107.538 141.628 107.248C146.659 106.904 151.702 106.904 156.732 107.248C160.211 107.669 163.657 108.409 167.041 109.46Z" fill="#301E4E"/>
<path opacity="0.5" d="M167.041 109.46C167.041 109.46 175.574 133.499 169.416 178.259H133.883C133.444 171.721 135.954 139.844 129.796 109.052C133.703 108.14 137.655 107.538 141.628 107.248C146.659 106.904 151.702 106.904 156.732 107.248C160.211 107.669 163.657 108.409 167.041 109.46Z" fill="white"/>
<path d="M137.738 116.653C138.473 121.721 137.496 133.832 133.866 147.854C133.582 135.84 132.415 123.88 130.379 112.112V112.047C132.71 111.768 137.03 111.897 137.738 116.653Z" fill="#301E4E"/>
<path opacity="0.4" d="M137.738 116.653C138.473 121.721 137.496 133.832 133.866 147.854C133.582 135.84 132.415 123.88 130.379 112.112V112.047C132.71 111.768 137.03 111.897 137.738 116.653Z" fill="white"/>
<path d="M121.29 368.972L126.561 374.619L136.591 362.111L131.321 356.464L121.29 368.972Z" fill="#7F3E3B"/>
<path d="M128.013 372.354L121.612 367.222C121.508 367.122 121.378 367.068 121.245 367.068C121.111 367.068 120.982 367.122 120.877 367.222L115.983 373.138C115.888 373.267 115.817 373.421 115.777 373.587C115.736 373.753 115.727 373.928 115.749 374.099C115.771 374.27 115.825 374.434 115.905 374.577C115.986 374.721 116.092 374.841 116.216 374.93C120.304 378.699 123.253 381.544 125.583 384.679C128.273 388.34 129.725 388.867 135.999 388.867C138.904 388.867 140.544 385.935 139.361 385.485C128.909 381.523 131.706 379.794 129.16 373.986C128.902 373.332 128.507 372.77 128.013 372.354Z" fill="#263238"/>
<path d="M136.582 362.111L131.419 368.564L126.148 362.906L131.312 356.464L136.582 362.111Z" fill="#5E2B2B"/>
<path d="M140.204 362.294H146.846L146.398 371.796H139.756L140.204 362.294Z" fill="#5E2B2B"/>
<path d="M169.417 178.26C169.417 178.26 176.417 236.301 178.802 267.888C180.72 293.237 134.96 368.812 134.96 368.812L126.112 358.837C126.112 358.837 159.53 291.079 156.957 262.864C154.474 235.539 146.021 178.228 146.021 178.228L169.417 178.26Z" fill="#301E4E"/>
<path opacity="0.5" d="M169.417 178.26C169.417 178.26 176.417 236.301 178.802 267.888C180.72 293.237 134.96 368.812 134.96 368.812L126.112 358.837C126.112 358.837 159.53 291.079 156.957 262.864C154.474 235.539 146.021 178.228 146.021 178.228L169.417 178.26Z" fill="black"/>
<path d="M139.334 380.718H145.985L146.846 362.294H140.203L139.334 380.718Z" fill="#7F3E3B"/>
<path d="M146.334 379.805H138.867C138.743 379.799 138.621 379.852 138.529 379.953C138.437 380.053 138.381 380.193 138.374 380.342L138.007 387.417C138.006 387.602 138.035 387.785 138.093 387.956C138.151 388.128 138.236 388.283 138.344 388.415C138.453 388.547 138.581 388.651 138.723 388.723C138.865 388.795 139.018 388.833 139.172 388.835C141.772 388.781 143.018 388.598 146.343 388.598C148.36 388.598 156.947 388.856 159.744 388.856C162.541 388.856 162.433 385.549 161.268 385.249C155.97 383.906 149.4 382.028 147.518 380.288C147.181 379.97 146.763 379.799 146.334 379.805Z" fill="#263238"/>
<path d="M208.526 158.848L214.63 155.949L216.118 163.465C216.118 163.465 209.153 165.956 208.051 163.551L208.526 158.848Z" fill="#7F3E3B"/>
<path d="M219.802 157.463L221.595 161.575L216.118 163.443L214.63 155.949L219.802 157.463Z" fill="#7F3E3B"/>
<path d="M158.203 107.398L156.75 107.216C151.72 106.872 146.677 106.872 141.646 107.216L140.75 107.28L140.831 107.57C140.902 107.796 142.57 113.11 152.134 113.11C156.302 113.11 158.481 112.283 158.982 110.49C159.085 109.938 159.067 109.364 158.93 108.822C158.794 108.281 158.543 107.79 158.203 107.398Z" fill="#BAB4C4"/>
<path d="M142.525 86.8701C143.646 92.6893 144.91 103.361 141.629 107.27C141.629 107.27 143.045 112.09 152.081 112.09C162.013 112.09 156.733 107.27 156.733 107.27C151.265 105.723 151.274 100.903 152.081 96.3827L142.525 86.8701Z" fill="#7F3E3B"/>
<path d="M146.443 90.7461L152.099 96.3506C151.895 97.409 151.769 98.4868 151.723 99.5715C149.643 99.2172 146.721 96.4901 146.425 93.8919C146.267 92.8512 146.273 91.7841 146.443 90.7461Z" fill="#5E2B2B"/>
<path d="M156.724 69.5519C159.745 71.8924 160.175 83.1443 155.756 84.7548C151.337 86.3653 151.005 65.1284 156.724 69.5519Z" fill="#263238"/>
<path d="M140.427 80.7716C142.453 88.2872 143.314 92.8288 147.401 95.9101C148.72 96.9252 150.245 97.4892 151.812 97.541C153.379 97.5927 154.928 97.1304 156.291 96.2039C157.654 95.2774 158.78 93.9221 159.547 92.2845C160.314 90.6469 160.692 88.7894 160.641 86.9129C160.56 79.6872 157.261 68.5642 150.315 67.1685C148.817 66.8223 147.27 66.9533 145.829 67.5484C144.387 68.1436 143.101 69.1819 142.1 70.5594C141.099 71.937 140.417 73.6054 140.124 75.3977C139.83 77.1899 139.935 79.0431 140.427 80.7716Z" fill="#7F3E3B"/>
<path d="M133.185 73.6961C135.354 78.4094 140.804 89.1459 143.421 88.0723C146.039 86.9986 146.048 78.4094 142.686 72.966C142.686 72.966 169.318 76.187 169.856 58.0637C170.403 39.5217 157.575 57.4625 146.29 62.6482C134.009 68.3386 128.084 62.6053 133.185 73.6961Z" fill="#263238"/>
<path d="M134.323 67.1259C134.272 67.1136 134.227 67.0807 134.194 67.0327C134.161 66.9848 134.144 66.9248 134.144 66.8629C134.144 66.8009 134.161 66.7409 134.194 66.693C134.227 66.645 134.272 66.6121 134.323 66.5998C134.726 66.4924 135.166 66.3958 135.641 66.2885C139.212 65.5903 142.694 64.3491 146.003 62.5951C149.364 60.7913 152.887 57.6992 156.007 54.9722C157.988 53.1601 160.053 51.4825 162.192 49.9475C162.244 49.9159 162.305 49.9094 162.362 49.9293C162.418 49.9492 162.466 49.9941 162.496 50.0548C162.511 50.0858 162.52 50.1199 162.523 50.155C162.526 50.1902 162.523 50.2257 162.515 50.2597C162.507 50.2936 162.493 50.3252 162.474 50.3527C162.456 50.3802 162.433 50.403 162.407 50.4199C160.283 51.9444 158.233 53.6112 156.267 55.4124C153.138 58.1502 149.589 61.253 146.182 63.089C142.845 64.8594 139.333 66.1114 135.73 66.8145C135.255 66.9219 134.834 67.0185 134.413 67.1259H134.323Z" fill="#263238"/>
<path d="M139.316 89.9517C140.518 91.3511 142.122 92.1463 143.798 92.1742C146.021 92.1742 146.487 89.6619 145.295 87.5575C144.237 85.6679 141.817 83.3917 139.863 84.4117C137.908 85.4317 137.846 88.2232 139.316 89.9517Z" fill="#7F3E3B"/>
<path opacity="0.2" d="M156.966 262.895C155.684 248.82 152.816 226.767 150.351 208.708C151.642 205.68 155.263 199.55 155.263 199.55C158.508 212.981 165.562 263.615 155.496 331.996C145.008 352.245 134.969 368.843 134.969 368.843L133.562 342.732C143.287 320.894 158.75 282.404 156.966 262.895Z" fill="black"/>
<path d="M150.638 80.3531C150.772 80.9759 151.158 81.4268 151.534 81.3194C151.911 81.2121 152.045 80.643 151.911 80.0203C151.776 79.3976 151.391 78.9467 151.014 79.0648C150.638 79.1829 150.503 79.7304 150.638 80.3531Z" fill="#263238"/>
<path d="M156.553 78.7964C156.688 79.4191 157.073 79.8701 157.45 79.7627C157.826 79.6553 157.96 79.097 157.826 78.4743C157.692 77.8516 157.315 77.4007 156.93 77.508C156.544 77.6154 156.419 78.1737 156.553 78.7964Z" fill="#263238"/>
<path d="M154.743 79.6016C155.776 81.3432 156.997 82.9136 158.374 84.272C158.074 84.6704 157.705 84.9855 157.294 85.1951C156.882 85.4046 156.436 85.5037 155.989 85.4852L154.743 79.6016Z" fill="#630F0F"/>
<path d="M153.73 87.7502C152.638 87.7633 151.579 87.306 150.745 86.4619C150.73 86.4449 150.719 86.4247 150.71 86.4023C150.702 86.38 150.698 86.3559 150.697 86.3314C150.697 86.307 150.7 86.2827 150.708 86.26C150.715 86.2372 150.726 86.2164 150.741 86.1988C150.755 86.1812 150.772 86.1671 150.79 86.1573C150.809 86.1474 150.829 86.1421 150.849 86.1416C150.87 86.1411 150.89 86.1455 150.909 86.1544C150.928 86.1632 150.945 86.1765 150.96 86.1934C151.485 86.7042 152.1 87.0662 152.758 87.2521C153.416 87.438 154.101 87.4432 154.761 87.2671C154.781 87.2615 154.802 87.2606 154.822 87.2646C154.842 87.2685 154.862 87.2772 154.879 87.2902C154.897 87.3032 154.912 87.3201 154.924 87.3401C154.936 87.3601 154.944 87.3827 154.949 87.4067C154.954 87.4306 154.954 87.4555 154.951 87.4798C154.948 87.5041 154.941 87.5274 154.93 87.5483C154.919 87.5692 154.905 87.5874 154.888 87.6018C154.871 87.6162 154.853 87.6265 154.833 87.6321C154.47 87.7207 154.1 87.7603 153.73 87.7502Z" fill="#263238"/>
<path d="M148.289 78.5601C148.247 78.5702 148.204 78.5702 148.163 78.5601C148.125 78.5415 148.09 78.5137 148.061 78.4783C148.032 78.443 148.009 78.401 147.994 78.3548C147.979 78.3085 147.971 78.2591 147.973 78.2095C147.974 78.1599 147.984 78.1111 148.002 78.0662C148.193 77.5222 148.492 77.0423 148.873 76.6682C149.254 76.294 149.706 76.0368 150.189 75.9189C150.271 75.9092 150.354 75.9368 150.42 75.9964C150.487 76.0561 150.532 76.1433 150.547 76.241C150.554 76.2904 150.552 76.3409 150.542 76.3893C150.531 76.4378 150.513 76.4834 150.488 76.5234C150.463 76.5634 150.432 76.597 150.396 76.6223C150.36 76.6475 150.32 76.6639 150.279 76.6705C149.899 76.7728 149.546 76.9835 149.25 77.2845C148.953 77.5855 148.722 77.9678 148.575 78.399C148.544 78.4548 148.501 78.4993 148.451 78.5277C148.4 78.5561 148.344 78.5673 148.289 78.5601Z" fill="#263238"/>
<path d="M158.553 75.7146C158.506 75.715 158.46 75.7026 158.418 75.6784C158.376 75.6542 158.34 75.6188 158.311 75.575C158.059 75.1993 157.739 74.8962 157.376 74.6881C157.013 74.48 156.616 74.3721 156.213 74.3725C156.131 74.3786 156.049 74.3463 155.986 74.2824C155.922 74.2184 155.882 74.1276 155.873 74.0289C155.868 73.9298 155.895 73.8321 155.948 73.7562C156.001 73.6802 156.077 73.6318 156.16 73.6209C156.663 73.6087 157.163 73.7349 157.62 73.9899C158.077 74.2448 158.479 74.6218 158.795 75.0918C158.847 75.1707 158.872 75.2709 158.864 75.3712C158.855 75.4714 158.815 75.5638 158.75 75.6287C158.695 75.6836 158.625 75.7139 158.553 75.7146Z" fill="#263238"/>
<path d="M134.404 152.148C132.619 151.428 130.905 150.474 129.295 149.303C128.944 149.036 128.619 148.723 128.326 148.369C128.739 146.061 129.277 143.742 129.859 141.412C130.442 139.082 131.159 136.699 131.903 134.347C132.647 131.996 133.436 129.655 134.261 127.336C134.673 126.177 135.094 125.017 135.524 123.868L136.815 120.529L127.851 115.032C127.26 116.374 126.776 117.555 126.292 118.833C125.808 120.111 125.395 121.345 124.911 122.612C124.027 125.16 123.22 127.741 122.491 130.353C120.972 135.687 119.905 141.19 119.309 146.78V147.07V147.628C119.286 148.014 119.286 148.402 119.309 148.788C119.345 149.567 119.459 150.339 119.649 151.085C120.003 152.402 120.576 153.618 121.335 154.661C122.45 156.116 123.789 157.301 125.279 158.15C127.573 159.446 129.999 160.377 132.495 160.92C137.04 161.955 141.666 162.387 146.29 162.209L146.702 156.25C142.54 155.168 138.434 153.798 134.404 152.148Z" fill="#7F3E3B"/>
<path d="M148.692 381.179C148.088 381.163 147.487 381.069 146.899 380.9C146.872 380.889 146.848 380.871 146.828 380.846C146.808 380.822 146.792 380.793 146.783 380.761C146.779 380.726 146.782 380.691 146.793 380.659C146.804 380.627 146.823 380.599 146.846 380.578C147.061 380.396 148.943 378.86 149.75 379.247C149.842 379.289 149.923 379.358 149.985 379.448C150.048 379.539 150.091 379.647 150.109 379.762C150.148 379.935 150.15 380.117 150.116 380.291C150.082 380.466 150.011 380.627 149.911 380.761C149.561 381.073 149.128 381.222 148.692 381.179ZM147.33 380.642C148.522 380.922 149.409 380.879 149.723 380.514C149.788 380.421 149.831 380.31 149.85 380.192C149.869 380.074 149.862 379.952 149.831 379.837C149.823 379.781 149.803 379.727 149.773 379.682C149.743 379.637 149.704 379.602 149.66 379.58C149.185 379.354 148.002 380.106 147.33 380.642Z" fill="#301E4E"/>
<path d="M146.953 380.9C146.93 380.91 146.905 380.91 146.882 380.9C146.859 380.887 146.84 380.868 146.826 380.843C146.812 380.819 146.803 380.79 146.801 380.761C146.801 380.664 146.649 378.377 147.321 377.604C147.405 377.505 147.507 377.43 147.619 377.385C147.73 377.341 147.849 377.327 147.966 377.346C148.097 377.352 148.223 377.41 148.324 377.511C148.425 377.613 148.494 377.751 148.522 377.905C148.674 378.774 147.688 380.428 147.025 380.9H146.953ZM147.85 377.679C147.788 377.678 147.727 377.692 147.67 377.719C147.613 377.747 147.561 377.788 147.518 377.84C147.149 378.611 146.995 379.502 147.079 380.385C147.626 379.826 148.334 378.56 148.226 377.958C148.226 377.84 148.155 377.711 147.921 377.679H147.85Z" fill="#301E4E"/>
<path d="M132.324 376.66C131.139 376.442 130.007 375.918 129.007 375.124C128.978 375.108 128.954 375.079 128.941 375.044C128.928 375.008 128.926 374.968 128.936 374.931C128.944 374.894 128.961 374.862 128.985 374.837C129.009 374.812 129.039 374.796 129.07 374.791C129.429 374.791 132.575 374.512 133.167 375.371C133.219 375.441 133.256 375.526 133.274 375.619C133.291 375.711 133.288 375.807 133.265 375.897C133.238 376.045 133.181 376.182 133.1 376.298C133.019 376.414 132.916 376.505 132.799 376.563C132.647 376.629 132.486 376.662 132.324 376.66ZM129.59 375.113C131.033 376.069 132.172 376.488 132.683 376.187C132.756 376.151 132.822 376.094 132.873 376.021C132.925 375.948 132.961 375.862 132.978 375.768C132.994 375.736 133.002 375.699 133.002 375.661C133.002 375.623 132.994 375.586 132.978 375.554C132.611 375.124 130.872 375.049 129.59 375.113Z" fill="#301E4E"/>
<path d="M129.079 375.156C129.054 375.156 129.029 375.147 129.007 375.132C128.985 375.117 128.967 375.096 128.953 375.07C128.942 375.044 128.937 375.014 128.937 374.985C128.937 374.955 128.942 374.925 128.953 374.899C129.007 374.77 130.199 371.86 131.732 372.751C132.153 372.998 132.189 373.288 132.153 373.492C132.001 374.362 130.011 375.146 129.097 375.178L129.079 375.156ZM131.149 372.934C130.325 372.934 129.617 374.19 129.357 374.77C130.316 374.63 131.786 373.911 131.876 373.396C131.876 373.288 131.804 373.17 131.607 373.052C131.464 372.969 131.308 372.928 131.149 372.934Z" fill="#301E4E"/>
<path d="M145.672 156.163L151.131 154.37L151.875 162.627C151.875 162.627 146.497 164.559 145.161 161.177L145.672 156.163Z" fill="#7F3E3B"/>
<path d="M145.563 156.335C146.707 154.85 147.376 152.931 147.455 150.913L148.853 151.826C148.853 151.826 149.131 155.53 148.584 156.593C148.037 157.656 145.563 156.335 145.563 156.335Z" fill="#7F3E3B"/>
<path d="M153.685 155.186L153.353 162.627H151.874L151.121 154.37L153.685 155.186Z" fill="#7F3E3B"/>
<path d="M125.584 358.268L135.507 369.455L138.707 365.343L127.35 352.953L125.584 358.268Z" fill="#301E4E"/>
<path opacity="0.1" d="M125.584 358.268L135.507 369.455L138.707 365.343L127.35 352.953L125.584 358.268Z" fill="black"/>
<path d="M156.786 178.26C156.786 178.26 157.414 239.082 156.338 261.876C155.164 286.828 149.248 369.51 149.248 369.51H137.075C137.075 369.51 137.442 288.846 136.707 264.141C135.909 237.3 133.848 178.249 133.848 178.249L156.786 178.26Z" fill="#301E4E"/>
<path opacity="0.5" d="M156.786 178.26C156.786 178.26 157.414 239.082 156.338 261.876C155.164 286.828 149.248 369.51 149.248 369.51H137.075C137.075 369.51 137.442 288.846 136.707 264.141C135.909 237.3 133.848 178.249 133.848 178.249L156.786 178.26Z" fill="black"/>
<path d="M136.591 369.509H149.741L150.467 363.969L135.954 364.838L136.591 369.509Z" fill="#301E4E"/>
<path opacity="0.1" d="M136.591 369.509H149.741L150.467 363.969L135.954 364.838L136.591 369.509Z" fill="black"/>
<path d="M129.797 109.052C123.522 110.125 117.095 137.729 117.095 137.729L132.217 144.622C132.217 144.622 136.017 132.811 138.617 123.546C141.342 113.894 136.51 107.871 129.797 109.052Z" fill="#301E4E"/>
<path opacity="0.5" d="M129.797 109.052C123.522 110.125 117.095 137.729 117.095 137.729L132.217 144.622C132.217 144.622 136.017 132.811 138.617 123.546C141.342 113.894 136.51 107.871 129.797 109.052Z" fill="white"/>
</svg>
